<?xml version="1.0" encoding="UTF-8"?>
<svg id="Capa_1" data-name="Capa 1" xmlns="http://www.w3.org/2000/svg" viewBox="0 0 73.24 73.96">
  <defs>
    <style>
      .cls-1 {
        fill: #1d1d1b;
      }
    </style>
  </defs>
  <path class="cls-1" d="M69.78,18.63l-17.45,4.08c-2.04-6.42-7.32-9.63-15.84-9.63-8.04,0-12.06,2.14-12.06,6.41,0,1.69,.74,3.04,2.21,4.05s5.32,1.86,11.54,2.56c9.27,1.07,16.13,2.31,20.58,3.71,4.45,1.41,7.97,3.77,10.57,7.1,2.6,3.33,3.9,7.43,3.9,12.3,0,7.31-3.18,13.26-9.53,17.86-6.35,4.59-15.24,6.89-26.65,6.89-20.69,0-33.04-7.01-37.06-21.02l20.18-2.6c1.66,6.37,7.66,9.56,18.01,9.56,3.97,0,7.32-.62,10.05-1.87,2.73-1.24,4.1-2.92,4.1-5.04,0-3.29-3.03-5.24-9.08-5.84-16.4-1.77-27.19-4.51-32.36-8.24S3.14,30,3.14,23.34,6.14,11.02,12.14,6.61C18.14,2.2,26.56,0,37.38,0c8.57,0,15.44,1.48,20.58,4.43,5.15,2.95,9.08,7.69,11.82,14.2Z"/>
</svg>